<?xml version="1.0" encoding="utf-8"?>
<!-- Generator: Adobe Illustrator 19.0.0, SVG Export Plug-In . SVG Version: 6.00 Build 0)  -->
<!DOCTYPE svg PUBLIC "-//W3C//DTD SVG 1.1//EN" "http://www.w3.org/Graphics/SVG/1.1/DTD/svg11.dtd">
<svg version="1.1" id="Calque_1" xmlns="http://www.w3.org/2000/svg" xmlns:xlink="http://www.w3.org/1999/xlink" x="0px" y="0px"
	 viewBox="0 0 100 100" style="enable-background:new 0 0 100 100;" xml:space="preserve">
<style type="text/css">
	.st0{fill:#010202;}
</style>
<path id="Stroke-2" class="st0" d="M40,44.7c-1.1-0.4-6.4-1.1-8.5-0.5c0.2-0.4,0.4-0.8,0.5-1.2c1.7-5.4-3.2-11.9-10.9-14.5
	S3.8,27.6,2.1,33s5.5,11.6,13.2,14.1c4.2,1.4,8.1,1.8,11.4,0.6c2.7-0.9,6-0.1,8.2,1.4c2.4,2.5,3.1,2.9,5.9,4.3
	c3.4,1.1,41,13.1,45.1,13.4c4.4,0.3,12.4-2.6,12.4-2.6s-27.2-9.1-44.5-14.9C45.5,45.4,40.1,44.7,40,44.7z M28.5,41.8
	c-1.3,4.1-6.5,4.3-12.3,2.4C10.5,42.2,3.8,38,5.1,34c1.3-4.1,9.5-5,15.2-3.1C26.1,32.8,29.8,37.7,28.5,41.8L28.5,41.8z"/>
</svg>
