<?xml version="1.0" standalone="no"?>
<!DOCTYPE svg PUBLIC "-//W3C//DTD SVG 20010904//EN"
 "http://www.w3.org/TR/2001/REC-SVG-20010904/DTD/svg10.dtd">
<svg version="1.0" xmlns="http://www.w3.org/2000/svg"
 width="241.000000pt" height="241.000000pt" viewBox="0 0 241.000000 241.000000"
 preserveAspectRatio="xMidYMid meet">
<metadata>
Created by potrace 1.11, written by Peter Selinger 2001-2013
</metadata>
<g transform="translate(0.000000,241.000000) scale(0.100000,-0.100000)"
fill="#000000" stroke="none">
<path d="M822 2397 c-6 -7 -49 -90 -96 -184 -47 -95 -92 -174 -99 -174 -32 -3
-71 -9 -186 -29 -69 -12 -143 -24 -165 -27 -23 -3 -43 -7 -45 -9 -3 -3 11
-107 25 -179 3 -18 13 -77 19 -120 1 -11 6 -41 9 -66 l7 -45 -147 -147 -148
-148 60 -60 c32 -34 97 -100 144 -148 95 -96 111 -128 59 -123 -3 1 -6 -6 -6
-13 0 -12 3 -12 15 -3 16 14 14 -6 -19 -222 -10 -69 -19 -128 -19 -132 0 -7
74 -23 103 -21 9 0 17 -5 17 -12 0 -7 8 -19 18 -26 14 -11 15 -11 5 1 -17 19
-16 30 2 30 15 0 18 -7 18 -43 0 -10 2 -15 5 -12 3 2 12 -1 21 -8 14 -11 15
-10 1 7 -19 24 -21 46 -5 46 7 0 37 -5 66 -10 30 -6 72 -13 94 -16 22 -4 44
-7 50 -8 15 -2 55 -75 52 -94 -1 -9 -7 -24 -12 -32 -8 -13 -7 -13 8 -1 9 7 14
18 11 25 -3 6 2 2 10 -8 9 -11 16 -28 16 -37 0 -10 4 -19 8 -21 5 -1 30 -47
56 -100 26 -54 52 -98 58 -98 6 0 7 -5 2 -13 -5 -7 -2 -5 7 4 31 33 109 64 93
37 -4 -8 -3 -10 2 -5 5 5 9 13 9 19 0 11 206 121 213 113 2 -2 11 3 19 11 16
16 51 11 68 -10 6 -7 15 -11 20 -9 6 2 20 -5 31 -14 11 -10 26 -19 34 -21 26
-6 175 -84 182 -96 4 -6 8 -7 8 -3 0 4 9 3 20 -3 11 -6 18 -16 15 -23 -4 -7 3
-1 14 13 30 35 36 44 38 55 4 22 60 124 65 119 3 -3 6 1 5 8 -1 19 53 128 64
128 5 0 8 3 7 8 -1 4 1 16 5 27 6 17 20 23 71 31 43 6 62 6 58 -1 -3 -5 1 -5
9 1 14 11 43 19 104 28 17 2 63 10 103 16 l73 12 -6 47 c-3 25 -8 53 -10 61
-2 8 -6 38 -10 65 -3 28 -9 66 -14 85 -4 19 -7 56 -7 82 1 25 -2 44 -6 41 -5
-2 -8 4 -8 14 0 20 132 157 143 148 4 -3 5 -2 2 2 -3 4 29 42 72 85 l77 77
-104 103 c-57 57 -123 124 -147 149 l-44 47 16 103 c17 118 19 127 36 227 7
39 10 74 8 76 -2 2 -24 7 -49 10 -25 3 -55 8 -66 10 -12 3 -71 12 -130 21 -60
9 -122 18 -137 21 -25 5 -38 26 -119 187 -49 100 -91 183 -93 185 -1 2 -86
-39 -189 -90 l-186 -93 -157 80 c-215 108 -210 106 -221 92z m203 -134 l175
-88 176 88 c97 49 177 87 178 85 2 -2 42 -79 90 -173 48 -93 89 -171 90 -172
1 -1 74 -14 162 -28 87 -14 174 -28 193 -31 l34 -5 -7 -52 c-3 -29 -9 -65 -11
-82 -3 -16 -14 -82 -24 -145 l-18 -114 138 -140 c77 -77 138 -141 136 -142 -1
-2 -63 -65 -137 -140 -74 -75 -134 -140 -134 -143 1 -3 5 -28 8 -56 8 -62 14
-105 27 -175 5 -30 12 -78 15 -107 l6 -52 -33 -5 c-19 -3 -63 -10 -99 -15 -36
-6 -82 -13 -104 -17 -21 -3 -46 -7 -55 -9 -9 -1 -34 -6 -57 -9 l-41 -7 -88
-172 c-48 -95 -89 -173 -90 -175 -2 -2 -82 37 -179 85 l-176 88 -176 -88 c-97
-49 -177 -87 -178 -85 -2 1 -43 81 -91 175 -48 95 -91 174 -94 174 -3 1 -15 3
-26 4 -11 1 -67 10 -125 19 -204 33 -224 36 -229 42 -4 3 21 187 36 259 2 11
6 43 9 70 3 28 7 52 9 55 2 3 -51 60 -118 127 -67 66 -130 129 -140 140 -17
20 -14 23 123 161 80 80 138 146 136 154 -3 7 -8 31 -11 53 -3 22 -8 54 -10
70 -3 17 -7 44 -10 60 -18 115 -27 187 -22 191 5 5 11 6 122 23 39 6 81 13 95
15 14 3 57 10 96 16 l70 11 90 174 c49 96 90 175 91 175 2 0 82 -39 178 -87z"/>
<path d="M978 1673 c-20 -5 -23 -14 -9 -28 6 -6 6 -28 1 -54 -12 -66 -9 -69
78 -69 109 0 107 -1 107 60 l0 52 -33 -1 c-17 -1 -36 -2 -42 -2 -14 -1 -50
-43 -44 -52 2 -4 -1 -11 -7 -15 -8 -5 -9 10 -4 55 7 65 5 68 -47 54z m128 -89
c-3 -9 -6 -18 -6 -20 0 -2 -4 -4 -9 -4 -5 0 -7 9 -4 20 3 11 10 20 15 20 6 0
7 -7 4 -16z"/>
<path d="M674 1550 c-34 -6 -44 -35 -18 -54 14 -11 16 -23 10 -82 -9 -94 -24
-144 -48 -164 -19 -15 -20 -17 -3 -34 15 -14 35 -17 132 -15 116 2 159 14 177
46 7 13 12 12 30 -10 43 -49 163 -50 216 -2 42 38 17 70 -33 43 -30 -16 -55
-17 -67 -3 -8 10 -1 14 26 20 71 13 117 65 106 121 -6 34 -37 47 -94 41 -64
-8 -111 -38 -143 -90 -14 -25 -25 -35 -25 -25 0 10 -9 23 -20 30 -11 7 -20 16
-20 21 0 4 9 17 20 29 44 48 6 127 -62 129 -18 0 -60 1 -94 2 -33 1 -73 0 -90
-3z m144 -77 c4 -25 -14 -63 -28 -63 -6 0 -10 21 -10 46 0 38 3 45 18 42 9 -2
18 -13 20 -25z m285 -91 c-8 -24 -24 -42 -35 -42 -10 0 -1 38 14 57 14 17 29
6 21 -15z m-294 -41 c18 -34 1 -81 -29 -81 -16 0 -18 6 -14 38 10 67 23 81 43
43z"/>
<path d="M1260 1548 c-19 -5 -41 -16 -49 -23 -17 -17 -7 -47 13 -39 11 4 14 0
12 -13 -10 -52 -21 -155 -21 -208 l0 -60 46 1 c26 0 58 8 73 17 29 19 36 57
10 57 -14 0 -15 9 -9 63 4 34 9 71 10 82 1 11 3 36 4 55 1 19 5 30 9 24 4 -6
15 -13 25 -17 12 -4 16 -13 13 -24 -8 -28 -20 -153 -21 -208 0 -49 0 -50 33
-53 19 -2 51 5 74 17 40 20 41 20 67 0 38 -28 115 -27 170 1 45 22 60 45 43
62 -8 8 -22 6 -49 -4 -41 -16 -77 -13 -70 5 3 7 10 11 16 9 21 -4 78 25 99 53
44 56 18 115 -52 115 -92 0 -186 -78 -186 -155 0 -16 -6 -25 -15 -25 -13 0
-15 8 -11 38 3 20 8 71 11 112 4 41 8 82 10 90 3 8 1 21 -4 29 -11 16 -81 8
-125 -14 -32 -17 -36 -18 -35 -7 6 34 -21 40 -91 20z m420 -154 c0 -21 -18
-54 -30 -54 -13 0 -13 12 0 44 10 29 30 35 30 10z"/>
<path d="M1248 1158 c-22 -13 -38 -30 -38 -40 0 -22 28 -23 58 -2 21 14 25 14
47 0 30 -20 41 -20 48 -2 7 17 -39 66 -62 66 -9 0 -33 -10 -53 -22z"/>
<path d="M711 1146 c-9 -11 -8 -18 5 -31 14 -13 16 -28 11 -78 -9 -88 -15
-111 -32 -123 -20 -15 -19 -41 3 -46 9 -3 61 -4 115 -2 92 2 101 4 127 29 26
25 28 26 34 7 4 -10 18 -24 32 -30 84 -39 194 27 196 118 1 18 6 29 12 27 6
-3 10 -9 9 -13 -1 -5 -5 -37 -8 -71 -7 -60 -7 -62 17 -68 36 -9 98 19 98 44 0
12 -4 21 -10 21 -5 0 -7 17 -3 43 3 23 6 47 6 53 0 6 9 9 19 6 15 -4 17 -10
11 -41 -12 -65 -9 -113 9 -124 19 -12 88 5 111 27 11 12 15 11 25 -5 14 -22
69 -34 117 -25 46 9 88 46 76 65 -8 12 -14 13 -36 3 -31 -14 -65 -16 -65 -3 0
5 15 12 33 15 61 11 106 86 72 120 -23 23 -89 20 -136 -6 -29 -16 -46 -37 -65
-76 -36 -76 -52 -66 -45 31 1 10 9 17 21 17 11 0 20 4 20 9 0 5 3 16 6 25 4
12 0 16 -16 16 -17 0 -21 5 -18 27 2 20 -2 29 -15 31 -35 7 -67 -8 -73 -33 -6
-25 -17 -30 -66 -26 -15 1 -48 -7 -73 -18 -29 -13 -47 -16 -51 -9 -14 23 -66
35 -108 26 -42 -9 -91 -48 -101 -79 -5 -15 -8 -15 -30 5 -24 21 -24 21 -4 42
25 26 24 69 -1 94 -17 17 -33 20 -119 20 -72 0 -102 -4 -110 -14z m147 -55 c4
-24 -15 -54 -28 -46 -5 3 -7 13 -5 23 2 9 4 25 4 35 1 26 25 16 29 -12z m246
-86 c-4 -10 -9 -42 -13 -82 0 -7 -8 -13 -17 -13 -14 0 -15 8 -11 51 6 55 25
89 38 68 4 -7 5 -18 3 -24z m502 -13 c-15 -15 -16 -15 -16 4 0 28 24 52 28 28
2 -9 -3 -24 -12 -32z m-753 -49 c-5 -15 -16 -28 -24 -28 -16 0 -19 40 -6 69 8
16 11 17 24 3 12 -11 13 -22 6 -44z"/>
<path d="M109 1113 c-13 -16 -12 -17 4 -4 9 7 17 15 17 17 0 8 -8 3 -21 -13z"/>
<path d="M119 1083 c-12 -16 -12 -17 2 -6 9 7 20 9 24 5 5 -4 5 -1 1 6 -9 16
-11 15 -27 -5z"/>
<path d="M159 1058 c-6 -20 -6 -39 0 -42 4 -3 7 6 7 20 0 20 -4 32 -7 22z"/>
<path d="M194 1022 c11 -12 21 -20 24 -17 3 3 15 -3 26 -12 21 -18 21 -18 2 5
-11 12 -21 20 -24 17 -3 -3 -15 3 -26 12 -21 18 -21 18 -2 -5z"/>
<path d="M155 990 c3 -5 8 -10 11 -10 2 0 4 5 4 10 0 6 -5 10 -11 10 -5 0 -7
-4 -4 -10z"/>
<path d="M214 976 c1 -8 5 -18 8 -22 4 -3 5 1 4 10 -1 8 -5 18 -8 22 -4 3 -5
-1 -4 -10z"/>
<path d="M316 532 c-3 -5 1 -9 9 -9 8 0 12 4 9 9 -3 4 -7 8 -9 8 -2 0 -6 -4
-9 -8z"/>
<path d="M333 495 c0 -8 3 -13 5 -10 3 3 15 -3 26 -12 15 -13 14 -10 -3 10
-29 32 -28 31 -28 12z"/>
<path d="M474 495 c1 -8 8 -21 16 -28 12 -10 12 -9 2 4 -6 9 -9 18 -6 21 3 3
1 9 -4 12 -6 3 -9 -1 -8 -9z"/>
<path d="M290 491 c0 -6 4 -13 10 -16 6 -3 7 1 4 9 -7 18 -14 21 -14 7z"/>
<path d="M506 488 c3 -5 9 -7 12 -4 3 3 12 0 21 -6 13 -10 14 -10 4 2 -15 16
-46 23 -37 8z"/>
<path d="M1795 470 c-3 -5 -1 -10 4 -10 6 0 11 5 11 10 0 6 -2 10 -4 10 -3 0
-8 -4 -11 -10z"/>
<path d="M334 451 c0 -11 5 -17 13 -14 10 4 11 9 2 19 -15 18 -15 18 -15 -5z"/>
<path d="M462 454 c10 -10 20 -16 22 -13 3 3 -5 11 -17 18 -21 13 -21 12 -5
-5z"/>
<path d="M595 460 c-4 -6 -10 -8 -14 -6 -4 3 -8 -1 -8 -9 0 -13 4 -12 19 2 18
16 22 23 14 23 -3 0 -8 -5 -11 -10z"/>
<path d="M280 455 c0 -2 6 -8 13 -14 10 -8 14 -7 14 2 0 8 -6 14 -14 14 -7 0
-13 -1 -13 -2z"/>
<path d="M429 447 c6 -8 9 -16 6 -19 -3 -2 2 -5 10 -5 13 0 13 3 -2 19 -19 21
-31 25 -14 5z"/>
<path d="M361 426 c-9 -11 -9 -16 1 -22 7 -4 10 -4 6 1 -4 4 -3 14 3 22 6 7 9
13 6 13 -2 0 -10 -6 -16 -14z"/>
<path d="M390 436 c0 -2 7 -7 16 -10 8 -3 12 -2 9 4 -6 10 -25 14 -25 6z"/>
<path d="M599 423 c-13 -16 -12 -17 4 -4 9 7 17 15 17 17 0 8 -8 3 -21 -13z"/>
<path d="M1774 426 c1 -8 5 -18 8 -22 4 -3 5 1 4 10 -1 8 -5 18 -8 22 -4 3 -5
-1 -4 -10z"/>
<path d="M570 411 c0 -6 4 -13 10 -16 6 -3 7 1 4 9 -7 18 -14 21 -14 7z"/>
<path d="M619 403 c-13 -17 -13 -17 6 -3 11 8 22 16 24 17 2 2 0 3 -6 3 -6 0
-17 -8 -24 -17z"/>
<path d="M639 383 c-13 -16 -12 -17 4 -4 9 7 17 15 17 17 0 8 -8 3 -21 -13z"/>
<path d="M1733 379 c-2 -23 3 -25 10 -4 4 8 3 16 -1 19 -4 3 -9 -4 -9 -15z"/>
<path d="M708 307 c7 -8 10 -16 7 -19 -3 -2 1 -5 9 -5 18 0 10 24 -11 31 -12
5 -13 4 -5 -7z"/>
<path d="M1185 269 c-3 -4 2 -6 10 -5 21 3 28 13 10 13 -9 0 -18 -4 -20 -8z"/>
<path d="M1230 253 c0 -6 8 -17 18 -24 16 -13 16 -13 2 6 -8 11 -16 22 -17 24
-2 2 -3 0 -3 -6z"/>
<path d="M1076 231 c-3 -5 2 -15 12 -22 15 -12 16 -12 5 2 -7 9 -10 19 -6 22
3 4 4 7 0 7 -3 0 -8 -4 -11 -9z"/>
<path d="M1104 232 c4 -3 14 -7 22 -8 9 -1 13 0 10 4 -4 3 -14 7 -22 8 -9 1
-13 0 -10 -4z"/>
<path d="M1164 212 c23 -26 23 -26 23 -7 0 8 -3 13 -5 10 -3 -3 -12 1 -21 7
-10 8 -9 4 3 -10z"/>
<path d="M1213 217 c0 -7 9 -14 20 -14 11 -1 18 -1 16 0 -2 2 -11 8 -20 15
-12 9 -16 9 -16 -1z"/>
<path d="M1031 217 c2 -1 13 -9 24 -17 19 -14 19 -14 6 3 -7 9 -18 17 -24 17
-6 0 -8 -1 -6 -3z"/>
<path d="M1031 183 c7 -12 15 -20 18 -17 3 2 -3 12 -13 22 -17 16 -18 16 -5
-5z"/>
<path d="M1140 196 c0 -2 8 -10 18 -17 15 -13 16 -12 3 4 -13 16 -21 21 -21
13z"/>
<path d="M976 177 c3 -10 9 -15 12 -12 3 3 0 11 -7 18 -10 9 -11 8 -5 -6z"/>
<path d="M1096 177 c3 -10 9 -15 12 -12 3 3 0 11 -7 18 -10 9 -11 8 -5 -6z"/>
<path d="M1249 173 c-13 -16 -12 -17 4 -4 16 13 21 21 13 21 -2 0 -10 -8 -17
-17z"/>
<path d="M1069 153 c-13 -16 -12 -17 4 -4 16 13 21 21 13 21 -2 0 -10 -8 -17
-17z"/>
<path d="M889 133 c-13 -16 -12 -17 4 -4 16 13 21 21 13 21 -2 0 -10 -8 -17
-17z"/>
<path d="M975 140 c-4 -6 -12 -7 -18 -4 -7 4 -9 4 -5 -1 4 -4 3 -13 -2 -20 -7
-8 -5 -12 5 -12 8 0 13 3 10 5 -3 3 2 14 12 24 9 10 13 18 10 18 -3 0 -9 -5
-12 -10z"/>
<path d="M1089 133 c-13 -16 -12 -17 4 -4 16 13 21 21 13 21 -2 0 -10 -8 -17
-17z"/>
<path d="M787 129 c7 -7 15 -10 18 -7 3 3 -2 9 -12 12 -14 6 -15 5 -6 -5z"/>
<path d="M917 122 c-15 -16 -15 -19 -2 -19 8 0 13 3 10 5 -3 3 0 11 6 19 17
20 5 16 -14 -5z"/>
<path d="M997 122 c-15 -17 -15 -18 6 -19 12 0 16 1 9 4 -10 4 -10 8 -1 19 17
20 5 17 -14 -4z"/>
<path d="M859 108 c-5 -18 -6 -38 -1 -34 7 8 12 36 6 36 -2 0 -4 -1 -5 -2z"/>
<path d="M1555 91 c-3 -5 -2 -12 3 -15 5 -3 9 1 9 9 0 17 -3 19 -12 6z"/>
<path d="M890 66 c0 -2 8 -10 18 -17 15 -13 16 -12 3 4 -13 16 -21 21 -21 13z"/>
<path d="M1476 57 c3 -10 9 -15 12 -12 3 3 0 11 -7 18 -10 9 -11 8 -5 -6z"/>
<path d="M1510 49 c0 -5 5 -7 10 -4 6 3 10 8 10 11 0 2 -4 4 -10 4 -5 0 -10
-5 -10 -11z"/>
<path d="M840 30 c-9 -6 -10 -10 -3 -10 6 0 15 5 18 10 8 12 4 12 -15 0z"/>
</g>
</svg>
